<?xml version="1.0" encoding="utf-8"?>
<!-- Generator: Adobe Illustrator 23.0.0, SVG Export Plug-In . SVG Version: 6.00 Build 0)  -->
<svg version="1.1" id="레이어_1" xmlns="http://www.w3.org/2000/svg" xmlns:xlink="http://www.w3.org/1999/xlink" x="0px"
	 y="0px" viewBox="0 0 200 200" style="enable-background:new 0 0 200 200;" xml:space="preserve">
<style type="text/css">
	.st0{fill:url(#SVGID_1_);}
	.st1{fill:url(#SVGID_2_);}
	.st2{fill:url(#SVGID_3_);}
	.st3{fill:url(#SVGID_4_);}
	.st4{filter:url(#Adobe_OpacityMaskFilter);}
	.st5{filter:url(#Adobe_OpacityMaskFilter_1_);}
	.st6{mask:url(#SVGID_5_);fill:url(#SVGID_6_);}
	.st7{fill:url(#SVGID_7_);}
	.st8{opacity:0.4;fill:#494949;}
	.st9{fill:#FFFFFF;}
</style>
<g>
	<g>
		
			<linearGradient id="SVGID_1_" gradientUnits="userSpaceOnUse" x1="-11948.8682" y1="110.5141" x2="-12055.0352" y2="-58.3291" gradientTransform="matrix(0 -1 1 0 71.9981 -11902.002)">
			<stop  offset="0" style="stop-color:#C2E40B"/>
			<stop  offset="0.1206" style="stop-color:#B3DE10"/>
			<stop  offset="0.3511" style="stop-color:#8DCF1D"/>
			<stop  offset="0.6677" style="stop-color:#4FB631"/>
			<stop  offset="1" style="stop-color:#079949"/>
		</linearGradient>
		<path class="st0" d="M120.68,8.92L166.9,35.6c13.16,7.6,21.26,21.63,21.26,36.83v53.36c0,15.19-8.11,29.23-21.26,36.83
			l-22.67,13.09l-23.54,13.59c-2.41,1.39-4.92,2.53-7.5,3.41c-11.49,3.93-24.27,2.79-35.02-3.41l-46.22-26.68
			c-13.16-7.6-21.26-21.63-21.26-36.83V72.43c0-14.49,7.37-27.93,19.47-35.73c0.59-0.38,1.18-0.74,1.79-1.09L78.16,8.92
			c2.85-1.65,5.85-2.94,8.93-3.87C98.21,1.68,110.38,2.97,120.68,8.92z"/>
		<linearGradient id="SVGID_2_" gradientUnits="userSpaceOnUse" x1="41.8843" y1="41.2564" x2="273.9039" y2="274.5543">
			<stop  offset="0" style="stop-color:#C2E40B"/>
			<stop  offset="0.1206" style="stop-color:#B3DE10"/>
			<stop  offset="0.3511" style="stop-color:#8DCF1D"/>
			<stop  offset="0.6677" style="stop-color:#4FB631"/>
			<stop  offset="1" style="stop-color:#079949"/>
		</linearGradient>
		<path class="st1" d="M188.16,72.43v53.36c0,15.19-8.11,29.23-21.26,36.83l-22.67,13.09l-9.3,5.37l-14.25,8.23
			c-2.41,1.39-4.92,2.53-7.5,3.41c-11.49,3.93-24.27,2.79-35.02-3.41l-46.22-26.68c-13.16-7.6-21.26-21.63-21.26-36.83V72.43
			c0-14.49,7.37-27.93,19.47-35.73c0.59-0.38,1.18-0.74,1.79-1.09l12.81-7.39L78.16,8.92c2.85-1.65,5.85-2.94,8.93-3.87
			c11.11-3.37,23.29-2.08,33.59,3.87l14.18,8.18l30.7,17.72l1.34,0.77C180.06,43.2,188.16,57.24,188.16,72.43z"/>
		<linearGradient id="SVGID_3_" gradientUnits="userSpaceOnUse" x1="110.7977" y1="224.6182" x2="-2.3362" y2="29.6701">
			<stop  offset="0" style="stop-color:#C2E40B"/>
			<stop  offset="0.1206" style="stop-color:#B3DE10"/>
			<stop  offset="0.3511" style="stop-color:#8DCF1D"/>
			<stop  offset="0.6677" style="stop-color:#4FB631"/>
			<stop  offset="1" style="stop-color:#079949"/>
		</linearGradient>
		<path class="st2" d="M44.76,28.21c-8.16,14.76-12.81,31.74-12.81,49.8c0,56.9,46.1,103.02,102.99,103.07l-14.25,8.23
			c-2.41,1.39-4.92,2.53-7.5,3.41c-11.49,3.93-24.27,2.79-35.02-3.41l-46.22-26.68c-13.16-7.6-21.26-21.63-21.26-36.83V72.43
			c0-14.49,7.37-27.93,19.47-35.73c0.59-0.38,1.18-0.74,1.79-1.09L44.76,28.21z"/>
		<linearGradient id="SVGID_4_" gradientUnits="userSpaceOnUse" x1="77.1172" y1="71.9293" x2="47.1137" y2="24.2129">
			<stop  offset="0" style="stop-color:#C2E40B"/>
			<stop  offset="0.1206" style="stop-color:#B3DE10"/>
			<stop  offset="0.3511" style="stop-color:#8DCF1D"/>
			<stop  offset="0.6677" style="stop-color:#4FB631"/>
			<stop  offset="1" style="stop-color:#079949"/>
		</linearGradient>
		<path class="st3" d="M134.86,17.11C56.79,29.4,24.22,75.08,10.69,112.93v-40.5c0-14.49,7.37-27.93,19.47-35.73
			c0.59-0.38,1.18-0.74,1.79-1.09l12.81-7.39L78.16,8.92c2.85-1.65,5.85-2.94,8.93-3.87c11.11-3.37,23.29-2.08,33.59,3.87
			L134.86,17.11z"/>
		<defs>
			<filter id="Adobe_OpacityMaskFilter" filterUnits="userSpaceOnUse" x="10.69" y="3.23" width="154.87" height="109.71">
				<feFlood  style="flood-color:white;flood-opacity:1" result="back"/>
				<feBlend  in="SourceGraphic" in2="back" mode="normal"/>
			</filter>
		</defs>
		<mask maskUnits="userSpaceOnUse" x="10.69" y="3.23" width="154.87" height="109.71" id="SVGID_5_">
			<g class="st4">
				<defs>
					<filter id="Adobe_OpacityMaskFilter_1_" filterUnits="userSpaceOnUse" x="10.69" y="3.23" width="154.87" height="109.71">
						<feFlood  style="flood-color:white;flood-opacity:1" result="back"/>
						<feBlend  in="SourceGraphic" in2="back" mode="normal"/>
					</filter>
				</defs>
				<mask maskUnits="userSpaceOnUse" x="10.69" y="3.23" width="154.87" height="109.71" id="SVGID_5_">
					<g class="st5">
					</g>
				</mask>
				<linearGradient id="SVGID_6_" gradientUnits="userSpaceOnUse" x1="-24.3708" y1="107.1973" x2="109.7803" y2="28.7705">
					<stop  offset="0" style="stop-color:#FFFFFF"/>
					<stop  offset="0.0933" style="stop-color:#F0F0F0"/>
					<stop  offset="0.2719" style="stop-color:#CACACA"/>
					<stop  offset="0.5171" style="stop-color:#8C8C8C"/>
					<stop  offset="0.8164" style="stop-color:#373737"/>
					<stop  offset="1" style="stop-color:#000000"/>
				</linearGradient>
				<path class="st6" d="M165.56,34.83c-119.72-2.6-154.87,78.1-154.87,78.1v-40.5c0-14.49,7.37-27.93,19.47-35.73
					c0.59-0.38,1.18-0.74,1.79-1.09l12.81-7.39L78.16,8.92c2.85-1.65,5.85-2.94,8.93-3.87c11.11-3.37,23.29-2.08,33.59,3.87
					l14.18,8.18L165.56,34.83z"/>
			</g>
		</mask>
		<linearGradient id="SVGID_7_" gradientUnits="userSpaceOnUse" x1="-24.3708" y1="107.1973" x2="109.7803" y2="28.7705">
			<stop  offset="0" style="stop-color:#C2E40B"/>
			<stop  offset="0.1206" style="stop-color:#B3DE10"/>
			<stop  offset="0.3511" style="stop-color:#8DCF1D"/>
			<stop  offset="0.6677" style="stop-color:#4FB631"/>
			<stop  offset="1" style="stop-color:#079949"/>
		</linearGradient>
		<path class="st7" d="M165.56,34.83c-119.72-2.6-154.87,78.1-154.87,78.1v-40.5c0-14.49,7.37-27.93,19.47-35.73
			c0.59-0.38,1.18-0.74,1.79-1.09l12.81-7.39L78.16,8.92c2.85-1.65,5.85-2.94,8.93-3.87c11.11-3.37,23.29-2.08,33.59,3.87
			l14.18,8.18L165.56,34.83z"/>
	</g>
	<g>
		<path class="st8" d="M140.52,57.39v80.78c-0.16,0.02-0.31,0.04-0.47,0.06c-0.07,0.01-0.15,0.02-0.22,0.03
			c-0.07,0.01-0.13,0.02-0.2,0.02c-0.11,0.01-0.23,0.03-0.34,0.04c0,0,0,0,0,0c-0.13,0.01-0.27,0.03-0.4,0.04
			c-0.2,0.02-0.41,0.04-0.61,0.05c-0.07,0.01-0.14,0.01-0.21,0.02c-0.12,0.01-0.25,0.02-0.37,0.03c-0.05,0-0.1,0.01-0.16,0.01
			c-0.13,0.01-0.25,0.02-0.38,0.02c-0.07,0-0.14,0.01-0.21,0.01c-0.17,0.01-0.35,0.02-0.52,0.03c-0.7,0.03-1.41,0.05-2.11,0.05
			c-6,0-11.73-1.11-17.01-3.14v-25.88H86.66v26.24c-0.54,0.19-1.08,0.38-1.63,0.55c-2.54,0.81-5.16,1.41-7.87,1.78
			c-2.14,0.3-4.33,0.45-6.55,0.45c-2.43,0-4.83-0.18-7.16-0.54V57.39h23.21v35.19h30.65v-27.6c0-4.19,3.4-7.6,7.6-7.6H140.52z"/>
		<path class="st9" d="M138.89,55.76v82.59c-0.2,0.02-0.41,0.04-0.61,0.05c-0.07,0.01-0.14,0.01-0.21,0.02
			c-0.12,0.01-0.25,0.02-0.37,0.03c-0.05,0-0.1,0.01-0.16,0.01c-0.13,0.01-0.25,0.02-0.38,0.02c-0.07,0-0.14,0.01-0.21,0.01
			c-0.17,0.01-0.35,0.02-0.52,0.03c-0.7,0.03-1.41,0.05-2.11,0.05c-6,0-11.73-1.11-17.01-3.14c-0.55-0.21-1.09-0.43-1.63-0.66
			v-26.85H85.03v28.42c-2.54,0.81-5.16,1.41-7.87,1.78c-2.14,0.3-4.33,0.45-6.55,0.45c-2.43,0-4.83-0.18-7.16-0.54
			c-0.55-0.08-1.09-0.17-1.63-0.28V60.91c0-2.84,2.31-5.15,5.15-5.15h18.06v35.19h30.65V63.6c0-4.33,3.51-7.84,7.84-7.84H138.89z"/>
	</g>
</g>
</svg>
