<svg id="레이어_1" data-name="레이어 1" xmlns="http://www.w3.org/2000/svg" viewBox="0 0 1080 1080"><defs><style>.cls-1{fill:#3b3cbd;}.cls-2{fill:#fff;}</style></defs><circle class="cls-1" cx="540.44" cy="524.89" r="278.89"/><path class="cls-2" d="M665.44,430.69Q651.6,406.14,625,393.33t-63.92-12.8H462.26v94.78a48.83,48.83,0,0,1,0,95.06V685.72h98.65q38,0,64.55-13.22t40.19-37.79q13.65-24.56,13.65-58.35V489.88Q679.3,455.26,665.44,430.69ZM627.66,578q0,28.55-17.1,44.08t-48.18,15.53h-50V428.59h50q31.07,0,48.18,15.54t17.1,44.07Z"/><path class="cls-2" d="M473.72,522.84a32.86,32.86,0,1,0-25.22,31.84A32.74,32.74,0,0,0,473.72,522.84Z"/></svg>