<svg xmlns="http://www.w3.org/2000/svg" xmlns:xlink="http://www.w3.org/1999/xlink" viewBox="0 0 277.59 350.1"><defs><style>.cls-1{fill:url(#무제_그라디언트_100);}.cls-2{fill:url(#무제_그라디언트_22);}.cls-3{fill:url(#무제_그라디언트_27);}.cls-4{fill:url(#무제_그라디언트_37);}.cls-5{fill:#ffe812;}</style><linearGradient id="무제_그라디언트_100" x1="269.1" y1="110.3" x2="120.05" y2="215.63" gradientTransform="translate(-1.62 5.63) rotate(-0.04)" gradientUnits="userSpaceOnUse"><stop offset="0" stop-color="#ffe812"/><stop offset="1" stop-color="#ffffc7"/></linearGradient><linearGradient id="무제_그라디언트_22" x1="245.66" y1="168.02" x2="18.41" y2="148.14" gradientTransform="translate(-1.62 5.63) rotate(-0.04)" gradientUnits="userSpaceOnUse"><stop offset="0.26" stop-color="#0e0000"/><stop offset="0.75" stop-color="#454142" stop-opacity="0.89"/></linearGradient><linearGradient id="무제_그라디언트_27" x1="141.1" y1="79.72" x2="296.87" y2="321.28" gradientTransform="translate(-1.62 5.63) rotate(-0.04)" gradientUnits="userSpaceOnUse"><stop offset="0.05"/><stop offset="0.89" stop-color="#4c4142"/></linearGradient><linearGradient id="무제_그라디언트_37" x1="47.21" y1="306.7" x2="97.53" y2="167.44" gradientUnits="userSpaceOnUse"><stop offset="0" stop-color="#ffe812"/><stop offset="0.81" stop-color="#fbc609"/><stop offset="1" stop-color="#fabd07"/></linearGradient></defs><g id="레이어_2" data-name="레이어 2"><g id="레이어_1-2" data-name="레이어 1"><path class="cls-1" d="M161.36,290.46l-48.91-32.4a.84.84,0,0,1,0-1.47c19.51-9.91,101-56.47,60.93-76.72-40.12-18.64-112.82,36.26-123,44.18a.85.85,0,0,1-.94.06L11,198.32c-.48-.28-6.27-2.85-5.86-3.23,10.43-9.68,114.4-109.37,230.73-50.84,119.15,59.94-64.29,142.08-73.8,146.27A.8.8,0,0,1,161.36,290.46Z"/><path class="cls-2" d="M107.56,250.88C84.38,262.57,59.2,281,53.37,285.45a1.92,1.92,0,0,1-2.14.12L42.14,96.93,136,35.06l68.56,11.31-53.2,147.69Z"/><path class="cls-3" d="M276.87,195.94c0,.26-.13-4.74-.22-4.5-8.48,21.78-35.12,42.75-48.77,49.08a2.17,2.17,0,0,1-3.17-1.89l0-32.23a5.57,5.57,0,0,1,2.7-4.77c11-6.63,35.05-28.4,47.12-42.87l2.59-3.76.5-81.81c0-5.76-7.11-8.77-11.48-4.84L162.53,161.5a6.45,6.45,0,0,0-2.16,4.8l.14,177.23c0,5.26,6.11,8.38,10.63,5.44l54.75-35.56.83-.58c34-25.31,49.11-44.14,50-90.81l.15-26.5"/><path class="cls-4" d="M3.87,67.32l46.48,28a2.57,2.57,0,0,1,1.29,2.24l.09,59.08a2.59,2.59,0,0,0,1.23,2.2l49.09,29a2.58,2.58,0,0,0,3.93-2.21l-.07-51.71a2.58,2.58,0,0,1,3.87-2.25l52.43,31.51a3,3,0,0,1,1.61,2.24l1.84,181.35a2.58,2.58,0,0,1-3.84,2.26l-51.95-29.21a2.6,2.6,0,0,1-1.32-2.26l-.09-61.37a2.57,2.57,0,0,0-1.34-2.26L57,227.18a2.59,2.59,0,0,0-3.83,2.27l.08,54.27A2.58,2.58,0,0,1,49.36,286L1.58,257.86a2.59,2.59,0,0,1-1.31-2.25L0,69.56A2.58,2.58,0,0,1,3.87,67.32Z"/><path class="cls-5" d="M162.9,164.77l-54.62-32.4a.84.84,0,0,1,0-1.47C127.83,121,215,74.42,175,54.18,134.84,35.53,62.15,90.44,52,98.35a.83.83,0,0,1-.94.06L1.17,68.83A.83.83,0,0,1,1,67.5C11.46,57.81,121.13-40,237.45,18.55c119.13,59.94-64.07,142.09-73.58,146.27A1.3,1.3,0,0,1,162.9,164.77Z"/></g></g></svg>